<?xml version="1.0" encoding="UTF-8"?>
<!-- Animated using SVGANIMA - https://svganima.com -->
<svg xmlns="http://www.w3.org/2000/svg" xmlns:xlink="http://www.w3.org/1999/xlink" version="1.2" id="Nguyen_Phung_Hung_Created_nph5680_x40_gmail.com" x="0px" y="0px" viewBox="0 0 128 128" overflow="visible" xml:space="preserve" preserveAspectRatio="xMidYMid" width="NaN" height="NaN">
<defs id="defs5213"></defs><g id="doi_tac">
	<g id="g229">
		<path fill="#7CBB00" d=" M 68.12,40.67 c -0.27 -1.51 -0.7 -2.91 -1.28 -4.16 c -3.1 -0.61 -7.47 -0.13 -13.67,2.59 c -6.39,2.8 -11.33,2.52 -15.13,0.75 c -0.31,1.39 -0.5,2.89 -0.5,4.52 c 0,6.79,2.89,12.74,7.22,16.12 l -0.59,2.36 c -0.56,2.22 -2.1,4.01 -4.13,4.91 l 12.97,6.48 l 11 -5.5 c -2.76 -3.44 -4.48 -8.15 -4.48 -13.37 C 59.53,47.87,63.04,42.92,68.12,40.67 z " id="path540"></path>
	</g>
	<g id="g6576">
		<path fill="#FFBB00" d=" M 83.82,73.83 l -0.59 -2.36 c 4.33 -3.38,7.22 -9.33,7.22 -16.12 c 0 -1.64 -0.18 -3.14 -0.5 -4.53 c -3.37,1.09 -7.75,1.35 -13.29 -0.48 c -6.93 -2.29 -12.36 -1.83 -16.42 -0.43 c -0.46,1.63 -0.71,3.45 -0.71,5.45 c 0,6.79,2.89,12.74,7.22,16.12 l -0.59,2.36 c -0.56,2.22 -2.1,4.01 -4.13,4.91 L 75,85.22 l 12.96 -6.48 C 85.93,77.84,84.38,76.05,83.82,73.83 z " id="path5752"></path>
	</g>
	<g id="g4053">
		<g id="g6018">
			<polygon fill="#A50205" points="64.08,90.17 75,85.22 62.03,78.75    " id="polygon4956"></polygon>
		</g>
		<g id="g2820">
			<polygon fill="#A50205" points="75,85.22 86.07,90.17 87.96,78.75    " id="polygon8486"></polygon>
		</g>
	</g>
	<g id="g7215">
		<g id="g4594">
			<path fill="#1A171B" d=" M 54.9,93.14 c -0.57,0 -1.03,0.46 -1.03,1.03 v 12.86 c 0,0.57,0.46,1.03,1.03,1.03 c 0.57,0,1.03 -0.46,1.03 -1.03 V 94.17 C 55.93,93.6,55.47,93.14,54.9,93.14 z " id="path5038"></path>
		</g>
		<g id="g7522">
			<path fill="#01005C" d=" M 104.27,82.25 c -1.6 -1.26 -3.51 -2.11 -5.53 -2.46 l -8.86 -1.53 c -0.51 -0.09 -1.02 -0.24 -1.5 -0.45 h 0 c -1.78 -0.8 -3.07 -2.33 -3.55 -4.23 l -0.43 -1.72 c 4.28 -3.64,7.09 -9.67,7.09 -16.5 c 0 -10.24 -6.63 -17.12 -16.49 -17.12 c -2.23,0 -4.28,0.37 -6.14,1.03 c -1.85 -7.35 -7.74 -12.02 -15.85 -12.02 c -9.86,0 -16.49,6.88 -16.49,17.12 c 0,6.83,2.81,12.86,7.09,16.49 l -0.44,1.72 c -0.48,1.89 -1.77,3.43 -3.55,4.22 l 0,0 c -0.48,0.21 -0.98,0.37 -1.5,0.45 l -8.86,1.53 c -3.65,0.63 -6.8,2.84 -8.64,6.06 c -0.28,0.49 -0.11,1.12,0.38,1.4 c 0.16,0.09,0.34,0.14,0.51,0.14 c 0.36,0,0.71 -0.19,0.9 -0.52 c 1.53 -2.69,4.16 -4.53,7.2 -5.05 l 8.86 -1.53 c 0.52 -0.09,1.02 -0.24,1.51 -0.42 l 12.57,6.28 c 0.14,0.07,0.3,0.11,0.46,0.11 c 0.16,0,0.32 -0.04,0.46 -0.11 l 10.26 -5.13 c 0.58,0.66,1.21,1.26,1.86,1.82 l -0.44,1.74 c -0.48,1.89 -1.77,3.43 -3.55,4.23 h 0 c -0.48,0.21 -0.98,0.37 -1.5,0.45 l -8.86,1.53 c -5.95,1.03 -10.26,6.15 -10.26,12.19 v 10.11 c 0,0.57,0.46,1.03,1.03,1.03 c 0.57,0,1.03 -0.46,1.03 -1.03 V 91.98 c 0 -5.03,3.6 -9.3,8.55 -10.16 l 8.86 -1.53 c 0.26 -0.04,0.51 -0.1,0.77 -0.17 l 1.84,10.23 c 0.06,0.31,0.25,0.58,0.53,0.73 c 0.15,0.08,0.32,0.12,0.48,0.12 c 0.15,0,0.29 -0.03,0.42 -0.09 l 9.46 -4.28 v 19.76 c 0,0.57,0.46,1.03,1.03,1.03 c 0.57,0,1.03 -0.46,1.03 -1.03 V 86.81 l 9.62,4.29 c 0.13,0.06,0.28,0.09,0.42,0.09 c 0.17,0,0.34 -0.04,0.49 -0.12 c 0.28 -0.15,0.48 -0.42,0.53 -0.74 l 1.69 -10.21 c 0.25,0.07,0.5,0.13,0.75,0.17 l 8.86,1.53 c 1.68,0.29,3.27,1,4.61,2.05 c 0.45,0.35,1.09,0.27,1.45 -0.17 C 104.79,83.25,104.72,82.6,104.27,82.25 z M 38.58,44.37 c 0 -9.15,5.66 -15.06,14.43 -15.06 c 7.3,0,12.42,4.11,13.94,10.77 c -5.25,2.69 -8.44,8.18 -8.44,15.28 c 0,1.85,0.22,3.63,0.61,5.33 c -1.86,1.09 -3.92,1.71 -6.11,1.71 C 45.05,62.4,38.58,54.31,38.58,44.37 z M 53.01,73.08 l -10.83 -5.41 c 1.47 -1.13,2.53 -2.73,2.99 -4.58 l 0.23 -0.91 c 2.28,1.45,4.86,2.28,7.6,2.28 c 2.37,0,4.63 -0.63,6.66 -1.74 c 0.67,2.07,1.62,3.96,2.79,5.63 L 53.01,73.08 z M 60.57,55.36 c 0 -9.15,5.66 -15.06,14.43 -15.06 c 8.76,0,14.43,5.91,14.43,15.06 c 0,9.95 -6.47,18.04 -14.43,18.04 C 67.04,73.4,60.57,65.3,60.57,55.36 z M 64.86,88.68 l -1.46 -8.1 l 9.2,4.59 L 64.86,88.68 z M 75,84.07 l -10.83 -5.41 c 1.47 -1.13,2.53 -2.73,2.99 -4.58 l 0.23 -0.9 c 2.27,1.45,4.86,2.28,7.6,2.28 c 2.74,0,5.32 -0.83,7.6 -2.28 l 0.23,0.91 c 0.47,1.85,1.52,3.45,2.99,4.58 L 75,84.07 z M 85.27,88.68 l -7.86 -3.51 l 9.2 -4.6 L 85.27,88.68 z " id="path6340"></path>
		</g>
		<g id="g1824">
			<path fill="#1A171B" d=" M 32.91,82.15 c -0.57,0 -1.03,0.46 -1.03,1.03 v 11.92 c 0,0.57,0.46,1.03,1.03,1.03 c 0.57,0,1.03 -0.46,1.03 -1.03 V 83.18 C 33.94,82.61,33.48,82.15,32.91,82.15 z " id="path3266"></path>
		</g>
	</g>
	<g id="Logo">
		<path fill="#01005C" d=" M 68.11,92.59 c 0,0.26,0.03,0.49 -0.01,0.71 c -0.09,0.57 -0.56,0.95 -1.17,0.96 c -1.02,0.03 -1.85,0.75 -2.01,1.74 c -0.18,1.17,0.66,2.22,1.87,2.34 c 1.11,0.11,2.16 -0.82,2.2 -1.95 c 0.01 -0.3,0.06 -0.59,0.24 -0.83 c 0.35 -0.49,0.86 -0.58,1.41 -0.52 c 0.01,0.02,0.03,0.03,0.03,0.04 c -0.02,0.66,0.03,1.33 -0.09,1.98 c -0.32,1.79 -1.92,3.02 -3.76,2.98 c -1.77 -0.04 -3.28 -1.38 -3.55 -3.14 c -0.34 -2.23,1.34 -4.25,3.59 -4.3 C 67.28,92.58,67.69,92.59,68.11,92.59 z " id="path5014"></path>
		<path fill="#A50205" d=" M 70.56,99 c 0.27,1.08,0.04,2.01 -0.7,2.82 c -0.38,0.42 -0.86,0.68 -1.41,0.81 c -0.81,0.19 -1.62,0.38 -2.43,0.57 c -1.06,0.25 -1.93,0.78 -2.59,1.65 c -0.02,0.02 -0.04,0.04 -0.08,0.08 c -0.18 -0.57 -0.19 -1.13 -0.01 -1.67 c 0.32 -0.96,0.97 -1.6,1.97 -1.85 c 0.82 -0.21,1.65 -0.39,2.48 -0.58 c 1.08 -0.25,1.96 -0.82,2.62 -1.71 c 0.02 -0.03,0.05 -0.06,0.07 -0.09 C 70.51,99.03,70.52,99.02,70.56,99 z " id="path4604"></path>
		<path fill="#A50205" d=" M 70.67,92.58 c 0,0.36,0.03,0.69 -0.01,1.02 c -0.05,0.43 -0.47,0.71 -0.92,0.67 c -0.43 -0.04 -0.75 -0.4 -0.75 -0.84 c 0 -0.44,0.31 -0.8,0.74 -0.85 c 0.06 -0.01,0.13 -0.01,0.2 -0.01 C 70.17,92.58,70.41,92.58,70.67,92.58 z " id="path7908"></path>
	</g>
</g>
<g id="Vong_tron">
	<g id="g6646">
		<path fill="#01005C" d="M 102.14 85.92 C 101.65 85.62 101.02 85.78 100.72 86.26 C 95.74 94.45 88.08 100.82000000000001 79.15 104.19 C 78.62 104.39 78.35000000000001 104.99 78.55000000000001 105.52 C 78.71000000000001 105.92999999999999 79.10000000000001 106.19 79.51 106.19 C 79.63000000000001 106.19 79.75 106.17 79.87 106.12 C 89.24000000000001 102.59 97.27000000000001 95.91 102.48 87.33000000000001 C 102.78 86.85 102.63 86.21 102.14 85.92 Z" id="path4790"></path>
	</g>
	<g id="g4514">
		<path fill="#01005C" d="M 70.47 106.46 C 66.83 107.00999999999999 63.05 107.08999999999999 59.35 106.69 C 58.78 106.63 58.28 107.03999999999999 58.22 107.61 C 58.16 108.17999999999999 58.57 108.67999999999999 59.129999999999995 108.74 C 60.74999999999999 108.91 62.38999999999999 109 64.00999999999999 109 C 66.27999999999999 109 68.55999999999999 108.83 70.77999999999999 108.49 C 71.33999999999999 108.41 71.72999999999999 107.88 71.64999999999999 107.32 C 71.55 106.76 71.02 106.36 70.47 106.46 Z" id="path6314"></path>
	</g>
	<g id="g1550">
		<path fill="#01005C" d="M 50.91 104.91 C 49.31999999999999 104.39999999999999 47.75 103.78999999999999 46.23 103.1 C 45.709999999999994 102.86999999999999 45.099999999999994 103.08999999999999 44.86 103.61 C 44.63 104.13 44.85 104.74 45.37 104.97 C 46.96 105.69 48.61 106.33 50.269999999999996 106.86 C 50.37 106.89 50.48 106.91 50.58 106.91 C 51.019999999999996 106.91 51.42 106.63 51.559999999999995 106.19 C 51.75 105.66 51.45 105.08 50.91 104.91 Z" id="path8651"></path>
	</g>
	<g id="g6305">
		<path fill="#01005C" d="M 36.6 97.06 C 36.160000000000004 96.69 35.51 96.76 35.15 97.19 C 34.79 97.63 34.85 98.28 35.29 98.64 C 36.06 99.27 36.85 99.89 37.64 100.47 C 37.82 100.6 38.03 100.67 38.24 100.67 C 38.56 100.67 38.870000000000005 100.52 39.07 100.24 C 39.4 99.78 39.3 99.13 38.84 98.8 C 38.09 98.25 37.33 97.67 36.6 97.06 Z" id="path4061"></path>
	</g>
	<g id="g7082">
		<path fill="#01005C" d="M 23.75 79 C 23.55 78.47 22.96 78.2 22.42 78.39 C 21.89 78.59 21.62 79.18 21.82 79.72 C 23.29 83.67 25.310000000000002 87.38 27.83 90.78 C 28.029999999999998 91.05 28.34 91.2 28.659999999999997 91.2 C 28.869999999999997 91.2 29.089999999999996 91.13000000000001 29.269999999999996 91 C 29.729999999999997 90.66 29.819999999999997 90.02 29.479999999999997 89.56 C 27.09 86.31 25.16 82.77 23.75 79 Z" id="path290"></path>
	</g>
	<g id="g7304">
		<path fill="#01005C" d="M 38.47 26.94 C 26.28 35.35 19 49.21 19 64 C 19 65.98 19.13 67.96 19.38 69.91 C 19.45 70.42999999999999 19.89 70.81 20.4 70.81 C 20.45 70.81 20.49 70.81 20.54 70.8 C 21.099999999999998 70.73 21.5 70.21 21.43 69.64 C 21.19 67.78 21.06 65.89 21.06 64 C 21.06 49.89 28.009999999999998 36.66 39.64 28.64 C 40.11 28.32 40.22 27.68 39.9 27.21 C 39.58 26.73 38.93 26.62 38.47 26.94 Z" id="path8055"></path>
	</g>
	<g id="g7554">
		<path fill="#01005C" d="M 45.94 25.03 C 51.62 22.39 57.69 21.060000000000002 64 21.060000000000002 C 82.05 21.060000000000002 98.28999999999999 32.47 104.41 49.44 C 104.56 49.86 104.96 50.12 105.38 50.12 C 105.5 50.12 105.61 50.099999999999994 105.72999999999999 50.059999999999995 C 106.27 49.87 106.53999999999999 49.279999999999994 106.35 48.739999999999995 C 99.94 30.95 82.92 19 64 19 C 57.39 19 51.019999999999996 20.4 45.07 23.16 C 44.55 23.4 44.33 24.01 44.57 24.53 C 44.81 25.05 45.42 25.27 45.94 25.03 Z" id="path69"></path>
	</g>
	<g id="g5963">
		<path fill="#01005C" d="M 108.23 55.65 C 108.12 55.089999999999996 107.59 54.72 107.03 54.83 C 106.47 54.94 106.1 55.47 106.21000000000001 56.03 C 106.7 58.64 106.95 61.32 106.95 64 C 106.95 69 106.10000000000001 73.9 104.42 78.56 C 104.23 79.10000000000001 104.51 79.69 105.04 79.88 C 105.16000000000001 79.92 105.27000000000001 79.94 105.39 79.94 C 105.81 79.94 106.21 79.67999999999999 106.36 79.25999999999999 C 108.11 74.38 109 69.24 109 64 C 109 61.2 108.74 58.39 108.23 55.65 Z" id="path5917"></path>
	</g>
<animateTransform attributeName="transform" attributeType="auto" type="rotate" values="0 64 64;360 64 64" keyTimes="0;1" keySplines=".25 0 .75 .75" dur="5s" begin="0s" repeatCount="indefinite" accumulate="none" fill="freeze" id="animateTransform1461"></animateTransform></g>
<g id="May_bay">
	<path id="XMLID_10294_" fill="#7CBB00" d="M 30.13 20.78 L 7.63 27.2 C 7.4399999999999995 27.25 7.31 27.43 7.33 27.63 C 7.34 27.83 7.49 27.99 7.69 28.02 L 14.21 28.98 L 15.520000000000001 35.36 C 15.510000000000002 35.5 15.570000000000002 35.64 15.690000000000001 35.72 C 15.8 35.8 15.930000000000001 35.82 16.05 35.78 C 16.1 35.77 16.14 35.74 16.19 35.71 C 16.19 35.71 16.21 35.7 16.21 35.69 L 20.42 32.58 L 26.17 36.489999999999995 C 26.270000000000003 36.559999999999995 26.400000000000002 36.58 26.520000000000003 36.55 C 26.530000000000005 36.55 26.540000000000003 36.54 26.560000000000002 36.54 C 26.69 36.49 26.78 36.38 26.820000000000004 36.25 L 30.670000000000005 21.28 C 30.670000000000005 21.28 30.670000000000005 21.28 30.670000000000005 21.27 C 30.670000000000005 21.27 30.670000000000005 21.27 30.670000000000005 21.27 C 30.670000000000005 21.27 30.670000000000005 21.27 30.670000000000005 21.259999999999998 C 30.670000000000005 21.24 30.680000000000007 21.209999999999997 30.680000000000007 21.189999999999998 C 30.680000000000007 21.189999999999998 30.680000000000007 21.189999999999998 30.680000000000007 21.179999999999996 C 30.680000000000007 21.169999999999995 30.680000000000007 21.159999999999997 30.680000000000007 21.149999999999995 C 30.680000000000007 21.139999999999993 30.680000000000007 21.139999999999993 30.680000000000007 21.129999999999995 C 30.680000000000007 21.119999999999994 30.680000000000007 21.119999999999994 30.680000000000007 21.109999999999996 C 30.680000000000007 21.109999999999996 30.680000000000007 21.099999999999994 30.680000000000007 21.099999999999994 C 30.680000000000007 21.079999999999995 30.670000000000005 21.059999999999995 30.670000000000005 21.039999999999996 C 30.670000000000005 21.029999999999994 30.670000000000005 21.029999999999994 30.660000000000004 21.019999999999996 C 30.660000000000004 21.019999999999996 30.660000000000004 21.019999999999996 30.660000000000004 21.009999999999994 C 30.650000000000002 20.989999999999995 30.640000000000004 20.979999999999993 30.630000000000003 20.959999999999994 C 30.630000000000003 20.959999999999994 30.630000000000003 20.949999999999992 30.62 20.949999999999992 C 30.62 20.949999999999992 30.62 20.949999999999992 30.62 20.949999999999992 C 30.61 20.93999999999999 30.6 20.929999999999993 30.6 20.91999999999999 C 30.6 20.90999999999999 30.59 20.90999999999999 30.59 20.89999999999999 C 30.59 20.89999999999999 30.59 20.89999999999999 30.59 20.88999999999999 C 30.59 20.88999999999999 30.59 20.88999999999999 30.58 20.87999999999999 C 30.56 20.85999999999999 30.549999999999997 20.849999999999987 30.529999999999998 20.829999999999988 C 30.529999999999998 20.829999999999988 30.529999999999998 20.829999999999988 30.529999999999998 20.829999999999988 C 30.519999999999996 20.829999999999988 30.519999999999996 20.819999999999986 30.509999999999998 20.819999999999986 C 30.509999999999998 20.819999999999986 30.509999999999998 20.819999999999986 30.509999999999998 20.819999999999986 C 30.509999999999998 20.819999999999986 30.499999999999996 20.819999999999986 30.499999999999996 20.819999999999986 C 30.469999999999995 20.799999999999986 30.429999999999996 20.779999999999987 30.399999999999995 20.769999999999985 C 30.399999999999995 20.769999999999985 30.399999999999995 20.769999999999985 30.389999999999993 20.769999999999985 C 30.349999999999994 20.759999999999984 30.319999999999993 20.749999999999986 30.279999999999994 20.749999999999986 C 30.269999999999992 20.749999999999986 30.259999999999994 20.749999999999986 30.259999999999994 20.749999999999986 C 30.259999999999994 20.749999999999986 30.249999999999993 20.749999999999986 30.249999999999993 20.749999999999986 C 30.249999999999993 20.749999999999986 30.249999999999993 20.749999999999986 30.249999999999993 20.749999999999986 C 30.229999999999993 20.749999999999986 30.209999999999994 20.759999999999987 30.189999999999994 20.759999999999987 C 30.16 20.77 30.15 20.77 30.13 20.78 C 30.14 20.77 30.14 20.77 30.13 20.78 C 30.14 20.77 30.14 20.77 30.13 20.78 Z M 16.7 34.29 L 17.759999999999998 30.799999999999997 L 19.2 31.779999999999998 L 19.669999999999998 32.099999999999994 L 16.7 34.29 Z M 25.44 22.99 L 14.490000000000002 28.169999999999998 L 9.740000000000002 27.47 L 25.44 22.99 Z M 25.98 23.67 L 17.29 29.78 C 17.29 29.78 17.29 29.78 17.29 29.78 C 17.279999999999998 29.790000000000003 17.27 29.790000000000003 17.27 29.8 C 17.259999999999998 29.810000000000002 17.24 29.82 17.23 29.84 C 17.22 29.85 17.22 29.86 17.21 29.86 C 17.2 29.87 17.2 29.88 17.19 29.88 C 17.18 29.89 17.18 29.9 17.17 29.91 C 17.16 29.92 17.16 29.94 17.150000000000002 29.95 C 17.14 29.96 17.14 29.97 17.130000000000003 29.99 L 16.03 33.629999999999995 L 15.05 28.839999999999996 L 25.98 23.67 Z M 29.56 22.18 L 26.14 35.47 L 18.27 30.119999999999997 L 29.56 22.18 Z"></path>
<animateTransform attributeName="transform" attributeType="auto" type="translate" values="0 0;20 -10" keyTimes="0;1" keySplines=".25 0 .75 1" dur="2.5s" begin="0s" repeatCount="indefinite" accumulate="none" fill="freeze" id="animateTransform4895"></animateTransform></g>

</svg>
