<?xml version="1.0" encoding="UTF-8"?>
<!-- Animated using SVGANIMA - https://svganima.com -->
<svg xmlns="http://www.w3.org/2000/svg" xmlns:xlink="http://www.w3.org/1999/xlink" version="1.2" id="Nguyen_Phung_Hung_Created_nph5680_x40_gmail.com" x="0px" y="0px" viewBox="0 0 128 128" overflow="visible" xml:space="preserve" preserveAspectRatio="xMidYMid" width="NaN" height="NaN">
<defs id="defs7330"></defs><g id="BG">
	<g id="g5222">
		<g id="g840">
			<rect x="46.34" y="78.99" fill="#7CBB00" width="13.94" height="2.47" id="rect4827"></rect>
		</g>
		<g id="g240">
			<path fill="#7CBB00" d=" M 77.23,59.21 L 77.23,59.21 h -9.52 v 2.47 h 9.51 c 4.77,0,8.66,3.88,8.66,8.66 c 0,4.77 -3.88,8.65 -8.66,8.65 H 63.98 v 2.47 h 13.24 c 6.14,0,11.13 -4.99,11.13 -11.13 C 88.35,64.2,83.37,59.21,77.23,59.21 z " id="path6107"></path>
		</g>
		<g id="g7964">
			<path fill="#7CBB00" d=" M 50.77,59.21 c -4.77,0 -8.66 -3.88 -8.66 -8.66 c 0 -4.77,3.88 -8.66,8.66 -8.66 h 16.92 v 1.85 l 5.34 -3.08 l -5.34 -3.08 v 1.85 H 50.77 c -6.14,0 -11.13,4.99 -11.13,11.13 c 0,6.14,4.99,11.13,11.13,11.13 V 59.21 z " id="path6323"></path>
		</g>
		<g id="g2294">
			<rect x="54.48" y="59.21" fill="#7CBB00" width="9.52" height="2.47" id="rect8423"></rect>
		</g>
	</g>
	<g id="g1517">
		<g id="g1070">
			<rect x="23.51" y="27.52" fill="#00A1F1" width="80.99" height="3.71" id="rect9921"></rect>
		</g>
		<g id="g9330">
			<rect x="23.51" y="89.35" fill="#00A1F1" width="80.99" height="3.71" id="rect7262"></rect>
		</g>
	</g>
	<g id="g8546">
		<g id="g9923">
			<rect x="27.22" y="31.23" fill="#1A171B" width="1.85" height="58.11" id="rect1"></rect>
		</g>
		<g id="g5252">
			<path fill="#1A171B" d=" M 64,23.51 c -0.51,0 -0.93,0.42 -0.93,0.93 v 3.09 h 1.85 v -3.09 C 64.93,23.92,64.51,23.51,64,23.51 z " id="path4791"></path>
		</g>
		<g id="g4915">
			<path fill="#1A171B" d=" M 63.07,103.56 c 0,0.51,0.42,0.93,0.93,0.93 c 0.51,0,0.93 -0.42,0.93 -0.93 V 93.06 h -1.85 V 103.56 z " id="path2053"></path>
		</g>
		<g id="g7492">
			<path fill="#1A171B" d=" M 40.9,103.19 c -0.21,0.47,0,1.01,0.46,1.22 c 0.46,0.21,1.02,0,1.23 -0.46 l 4.9 -10.89 h -2.03 L 40.9,103.19 z " id="path2218"></path>
		</g>
		<g id="g5055">
			<path fill="#1A171B" d=" M 82.54,93.06 h -2.03 l 4.9,10.89 c 0.15,0.34,0.49,0.55,0.85,0.55 c 0.13,0,0.26 -0.03,0.38 -0.08 c 0.47 -0.21,0.67 -0.76,0.46 -1.22 L 82.54,93.06 z " id="path709"></path>
		</g>
		<g id="g1314">
			<rect x="98.93" y="31.23" fill="#1A171B" width="1.85" height="58.11" id="rect8896"></rect>
		</g>
	</g>
</g>
<g id="tick_3">
	<path fill="#006838" d=" M 70.69,56.17 l -4.01,4.01 l -1.54 -1.54 c -0.26 -0.26 -0.68 -0.26 -0.94,0 c -0.26,0.26 -0.26,0.68,0,0.94 l 2.01,2.01 c 0.12,0.12,0.29,0.19,0.47,0.19 c 0.18,0,0.35 -0.07,0.47 -0.19 l 4.48 -4.48 c 0.26 -0.26,0.26 -0.68,0 -0.94 C 71.37,55.91,70.95,55.91,70.69,56.17 z " id="path6406"></path>
</g>
<g id="tick_2">
	<path fill="#006838" d=" M 56.53,55.25 l -4.66,4.66 l -1.79 -1.79 c -0.3 -0.3 -0.79 -0.3 -1.09,0 c -0.3,0.3 -0.3,0.79,0,1.09 l 2.34,2.34 c 0.14,0.14,0.34,0.23,0.55,0.23 c 0.21,0,0.4 -0.08,0.55 -0.23 l 5.21 -5.21 c 0.3 -0.3,0.3 -0.79,0 -1.09 C 57.32,54.95,56.83,54.95,56.53,55.25 z " id="path7079"></path>
<animateTransform attributeName="transform" attributeType="auto" type="rotate" values="0 48.76499938964844 55.025001525878906;10 48.76499938964844 55.025001525878906;0 48.76499938964844 55.025001525878906" keyTimes="0;0.52;1" keySplines="0 0 1 1;0 0 1 1" dur="2.5s" begin="0s" repeatCount="indefinite" accumulate="none" fill="freeze" id="animateTransform7702"></animateTransform></g>
<g id="tick_1">
	<path fill="#006838" d=" M 67.22,75.08 l -4.69,4.69 l -1.8 -1.8 c -0.3 -0.3 -0.79 -0.3 -1.1,0 c -0.3,0.3 -0.3,0.8,0,1.1 l 2.35,2.35 c 0.15,0.14,0.34,0.23,0.55,0.23 c 0.21,0,0.4 -0.08,0.55 -0.23 l 5.24 -5.24 c 0.3 -0.3,0.3 -0.8,0 -1.1 C 68.02,74.78,67.53,74.78,67.22,75.08 z " id="path486"></path>
<animateTransform attributeName="transform" attributeType="auto" type="rotate" values="-5 59.405006408691406 74.85499572753906;0 59.405006408691406 74.85499572753906;-5 59.405006408691406 74.85499572753906;5 59.405006408691406 74.85499572753906;-5 59.405006408691406 74.85499572753906" keyTimes="0; 0.19999999999999998; 0.39999999999999997; 0.7999999999999999; 1" keySplines="0 0 1 1;0 0 1 1;0 0 1 1;0 0 1 1" dur="2.5s" begin="0s" repeatCount="indefinite" accumulate="none" fill="freeze" id="animateTransform7937"></animateTransform></g>
<g id="Logo">
	<path fill="#01005C" d=" M 38.21,74.23 c 0,0.31,0.04,0.58 -0.01,0.83 c -0.11,0.67 -0.66,1.12 -1.37,1.13 c -1.2,0.04 -2.17,0.88 -2.36,2.04 c -0.21,1.37,0.78,2.61,2.2,2.75 c 1.3,0.13,2.54 -0.96,2.58 -2.29 c 0.01 -0.35,0.07 -0.69,0.28 -0.98 c 0.41 -0.58,1.01 -0.68,1.66 -0.61 c 0.01,0.02,0.04,0.04,0.04,0.05 c -0.02,0.78,0.04,1.56 -0.11,2.33 c -0.38,2.1 -2.26,3.55 -4.42,3.5 c -2.08 -0.05 -3.85 -1.62 -4.17 -3.69 c -0.4 -2.62,1.57 -4.99,4.22 -5.05 C 37.23,74.21,37.71,74.23,38.21,74.23 z " id="path436"></path>
	<path fill="#A50205" d=" M 41.09,81.76 c 0.32,1.27,0.05,2.36 -0.82,3.31 c -0.45,0.49 -1.01,0.8 -1.66,0.95 c -0.95,0.22 -1.9,0.45 -2.85,0.67 c -1.25,0.29 -2.27,0.92 -3.04,1.94 c -0.02,0.02 -0.05,0.05 -0.09,0.09 c -0.21 -0.67 -0.22 -1.33 -0.01 -1.96 c 0.38 -1.13,1.14 -1.88,2.31 -2.17 c 0.96 -0.25,1.94 -0.46,2.91 -0.68 c 1.27 -0.29,2.3 -0.96,3.08 -2.01 c 0.02 -0.04,0.06 -0.07,0.08 -0.11 C 41.03,81.79,41.04,81.78,41.09,81.76 z " id="path5403"></path>
	<path fill="#A50205" d=" M 41.21,74.21 c 0,0.42,0.04,0.81 -0.01,1.2 c -0.06,0.51 -0.55,0.83 -1.08,0.79 c -0.51 -0.05 -0.88 -0.47 -0.88 -0.99 c 0 -0.52,0.36 -0.94,0.87 -1 c 0.07 -0.01,0.15 -0.01,0.23 -0.01 C 40.63,74.21,40.91,74.21,41.21,74.21 z " id="path4817"></path>
<animateTransform attributeName="transform" attributeType="auto" type="translate" values="0 0;46 0;46 -20;5 -20;5 -40;50 -40" keyTimes="0; 0.2; 0.4; 0.6; 0.8; 1" keySplines=".25 0 .75 1;.25 0 .75 1;.25 0 .75 1;.25 0 .75 1;0 0 1 1" dur="5s" begin="0s" repeatCount="indefinite" accumulate="none" fill="freeze" id="animateTransform2010"></animateTransform></g>
<g id="Ngon_nui">
	<g id="g1205">
		<path fill="#FFBB00" d=" M 81.92,46.2 l 2 -3.88 c -0.55,0 -1.35,0 -1.49,0 c -0.33,0 -0.59 -0.27 -0.59 -0.6 c 0 -0.33,0.27 -0.6,0.59 -0.6 c 0.04,0,0.08,0,0.12,0.01 c -0.01 -0.04 -0.01 -0.09 -0.01 -0.13 c 0 -0.39,0.32 -0.71,0.7 -0.71 c 0.36,0,0.65,0.27,0.7,0.62 c 0.07 -0.06,0.16 -0.1,0.26 -0.1 c 0.17,0,0.31,0.11,0.36,0.26 l 0.83 -1.61 l 4.45,8.63 c 1.31 -1.53,2.1 -3.52,2.1 -5.7 c 0 -4.82 -3.86 -8.72 -8.62 -8.72 s -8.62,3.91 -8.62,8.72 c 0,2.18,0.79,4.17,2.1,5.7 l 3.04 -5.9 L 81.92,46.2 z M 87.19,38.12 c 0.05,0,0.09,0.01,0.14,0.01 c -0.01 -0.05 -0.01 -0.1 -0.01 -0.15 c 0 -0.44,0.35 -0.8,0.79 -0.8 c 0.4,0,0.73,0.3,0.78,0.69 c 0.08 -0.07,0.18 -0.11,0.29 -0.11 c 0.24,0,0.44,0.2,0.44,0.44 c 0,0.08 -0.02,0.15 -0.06,0.22 c 0.24,0.05,0.42,0.26,0.42,0.51 c 0,0.29 -0.23,0.52 -0.51,0.52 c -0.16,0 -2.03,0 -2.26,0 c -0.37,0 -0.66 -0.3 -0.66 -0.67 C 86.53,38.42,86.82,38.12,87.19,38.12 z M 76.75,41.22 c -0.38,0 -0.7 -0.31 -0.7 -0.7 c 0 -0.34,0.24 -0.63,0.56 -0.69 c -0.05 -0.09 -0.08 -0.19 -0.08 -0.29 c 0 -0.33,0.26 -0.6,0.59 -0.6 c 0.15,0,0.29,0.06,0.4,0.16 c 0.07 -0.53,0.51 -0.94,1.05 -0.94 c 0.59,0,1.06,0.48,1.06,1.07 c 0,0.07 -0.01,0.13 -0.02,0.2 c 0.06 -0.01,0.12 -0.02,0.18 -0.02 c 0.49,0,0.89,0.4,0.89,0.91 c 0,0.5 -0.4,0.9 -0.89,0.9 C 79.5,41.22,76.97,41.22,76.75,41.22 z " id="path1192"></path>
	</g>
	<g id="g4162">
		<g id="g3786">
			<path fill="#00A1F1" d=" M 85.4,39.46 l -2.13,4.12 c 1.18,1.16,3.07,1.16,4.25,0 L 85.4,39.46 z " id="path1348"></path>
		</g>
		<g id="g4153">
			<path fill="#00A1F1" d=" M 78.05,45.67 c 0.99,1,2.6,1,3.59,0 l -1.8 -3.48 L 78.05,45.67 z " id="path4156"></path>
		</g>
	</g>
	<g id="g7639">
		<polygon fill="#F65314" points="80.55,36.39 85.4,36.39 85.4,33.67 80.55,33.67 81.36,35.03   " id="polygon2827"></polygon>
	</g>
	<g id="g8427">
		<g id="g9282">
			<path fill="#7CBB00" d=" M 83.51,49.54 h -1.42 c -0.11,0 -0.2,0.09 -0.2,0.2 s 0.09,0.2,0.2,0.2 h 1.42 c 0.11,0,0.2 -0.09,0.2 -0.2 S 83.62,49.54,83.51,49.54 z " id="path3790"></path>
		</g>
		<g id="g3367">
			<path fill="#7CBB00" d=" M 84.17,48.18 h -2.36 c -0.11,0 -0.2,0.09 -0.2,0.2 c 0,0.11,0.09,0.2,0.2,0.2 h 2.36 c 0.11,0,0.2 -0.09,0.2 -0.2 C 84.38,48.27,84.29,48.18,84.17,48.18 z " id="path1369"></path>
		</g>
		<g id="g2467">
			<path fill="#7CBB00" d=" M 86.88,49.54 H 86.2 c -0.11,0 -0.2,0.09 -0.2,0.2 s 0.09,0.2,0.2,0.2 h 0.68 c 0.11,0,0.2 -0.09,0.2 -0.2 S 87,49.54,86.88,49.54 z " id="path8168"></path>
		</g>
		<g id="g9782">
			<path fill="#7CBB00" d=" M 89.26,49.54 h -1.57 c -0.11,0 -0.2,0.09 -0.2,0.2 s 0.09,0.2,0.2,0.2 h 1.57 c 0.11,0,0.2 -0.09,0.2 -0.2 S 89.37,49.54,89.26,49.54 z " id="path7652"></path>
		</g>
		<g id="g9648">
			<path fill="#7CBB00" d=" M 86.6,48.18 c -0.11,0 -0.2,0.09 -0.2,0.2 c 0,0.11,0.09,0.2,0.2,0.2 h 1.04 c 0.11,0,0.2 -0.09,0.2 -0.2 c 0 -0.11 -0.09 -0.2 -0.2 -0.2 H 86.6 z " id="path5926"></path>
		</g>
		<g id="g1898">
			<path fill="#7CBB00" d=" M 87.91,47.23 c 0.11,0,0.2 -0.09,0.2 -0.2 c 0 -0.11 -0.09 -0.2 -0.2 -0.2 h -1.79 c -0.11,0 -0.2,0.09 -0.2,0.2 c 0,0.11,0.09,0.2,0.2,0.2 H 87.91 z " id="path6085"></path>
		</g>
		<g id="g385">
			<path fill="#7CBB00" d=" M 78.6,49.54 h -1.48 c -0.11,0 -0.2,0.09 -0.2,0.2 s 0.09,0.2,0.2,0.2 h 1.48 c 0.11,0,0.2 -0.09,0.2 -0.2 S 78.72,49.54,78.6,49.54 z " id="path4629"></path>
		</g>
		<g id="g5828">
			<path fill="#7CBB00" d=" M 79.68,48.18 h -1.21 c -0.11,0 -0.2,0.09 -0.2,0.2 c 0,0.11,0.09,0.2,0.2,0.2 h 1.21 c 0.11,0,0.2 -0.09,0.2 -0.2 C 79.88,48.27,79.79,48.18,79.68,48.18 z " id="path7262"></path>
		</g>
	</g>
	<g id="g6982">
		<path fill="#1A171B" d=" M 91.96,50.91 h -0.42 l -5.94 -11.5 v -5.74 c 0 -0.11 -0.09 -0.2 -0.2 -0.2 h -4.85 c -0.07,0 -0.14,0.04 -0.18,0.1 c -0.04,0.06 -0.03,0.14,0,0.21 l 0.75,1.26 l -0.75,1.26 c -0.04,0.06 -0.04,0.14,0,0.21 c 0.04,0.06,0.1,0.1,0.18,0.1 h 4.65 v 2.81 l -3.28,6.35 l -1.89 -3.66 c -0.03 -0.07 -0.1 -0.11 -0.18 -0.11 c -0.08,0 -0.14,0.04 -0.18,0.11 l -4.55,8.81 h -0.42 c -0.11,0 -0.2,0.09 -0.2,0.2 c 0,0.11,0.09,0.2,0.2,0.2 h 17.25 c 0.11,0,0.2 -0.09,0.2 -0.2 C 92.16,51,92.07,50.91,91.96,50.91 z M 80.91,36.19 l 0.62 -1.05 c 0.04 -0.06,0.04 -0.15,0 -0.21 l -0.62 -1.05 h 4.29 v 2.32 H 80.91 z M 75.58,50.91 l 4.27 -8.28 l 1.84,3.57 l -2.43,4.71 H 75.58 z M 84.3,50.91 l 1.37 -2.52 c 0.03 -0.06,0.03 -0.14,0 -0.2 l -0.9 -1.65 l 0.84 -1.53 c 0.03 -0.06,0.03 -0.14,0 -0.2 l -0.54 -0.98 l 0.5 -0.92 c 0.02 -0.03,0.03 -0.06,0.03 -0.1 v -1.19 c 0 -0.11 -0.09 -0.2 -0.2 -0.2 c -0.11,0 -0.2,0.09 -0.2,0.2 v 1.14 l -0.53,0.97 c -0.03,0.06 -0.03,0.14,0,0.2 l 0.54,0.98 l -0.84,1.53 c -0.03,0.06 -0.03,0.14,0,0.2 l 0.9,1.65 l -1.42,2.62 h -4.12 L 85.4,39.9 l 5.68,11.01 H 84.3 z " id="path1108"></path>
	</g>
</g>
</svg>
