<?xml version="1.0" encoding="UTF-8"?>
<!-- Animated using SVGANIMA - https://svganima.com -->
<svg xmlns="http://www.w3.org/2000/svg" xmlns:xlink="http://www.w3.org/1999/xlink" version="1.2" id="Nguyen_Phung_Hung_Created_nph5680_x40_gmail.com" x="0px" y="0px" viewBox="0 0 128 128" overflow="visible" xml:space="preserve" preserveAspectRatio="xMidYMid" width="NaN" height="NaN">
<defs id="defs3379"></defs><g id="g9576">
	<g id="g5607">
		<g id="g8718">
			<path fill="#01005C" d=" M 79.1,75.8 c -0.46 -0.1 -0.92,0.18 -1.03,0.64 c -1.3,5.67 -1.39,13.46 -1.39,13.79 c 0,0.48,0.38,0.86,0.85,0.87 c 0,0,0.01,0,0.01,0 c 0.47,0,0.85 -0.38,0.86 -0.85 c 0 -0.08,0.09 -7.93,1.35 -13.42 C 79.85,76.37,79.56,75.91,79.1,75.8 z " id="path8746"></path>
		</g>
		<g id="g5888">
			<path fill="#01005C" d=" M 42.98,79.09 c -4.24,0 -9.34 -0.8 -9.76 -3.04 c -0.76 -4.02,0.11 -10.75,0.12 -10.82 c 0.05 -0.39 -0.17 -0.77 -0.54 -0.91 c -0.03 -0.01 -3.36 -1.31 -6.12 -2.91 c -0.65 -0.37 -1.01 -0.8 -1.09 -1.3 c -0.17 -0.98,0.71 -2.11,0.99 -2.44 c 5.58 -6.62,6.54 -10.97,6.58 -11.16 c 0.01 -0.06,0.02 -0.12,0.02 -0.17 c 0 -15.75,12.81 -28.56,28.56 -28.56 c 4.83,0,9.6,1.23,13.8,3.55 c 0.41,0.23,0.94,0.08,1.17 -0.34 c 0.23 -0.42,0.08 -0.94 -0.34 -1.17 c -4.45 -2.46 -9.51 -3.76 -14.63 -3.76 c -16.66,0 -30.23,13.53 -30.28,30.18 c -0.15,0.59 -1.31,4.55 -6.19,10.32 c -0.63,0.75 -1.65,2.24 -1.37,3.84 c 0.18,1.01,0.82,1.85,1.92,2.49 c 2.17,1.26,4.62,2.31,5.74,2.77 c -0.21,1.86 -0.7,7.13 -0.02,10.7 c 0.74,3.86,7.49,4.44,11.45,4.44 c 1.9,0,2.99,1.03,2.99,2.82 v 6.61 c 0,0.47,0.38,0.86,0.86,0.86 c 0.48,0,0.86 -0.39,0.86 -0.86 v -6.61 C 47.68,80.87,45.83,79.09,42.98,79.09 z " id="path3400"></path>
		</g>
	</g>
	<g id="g7961">
		<g id="g5706">
			<path fill="#01005C" d=" M 100.94,107.16 l -1.61 -5.01 c -0.09 -0.27 -0.29 -0.49 -0.56 -0.6 c -0.23 -0.09 -1.6 -0.64 -3.71 -1.3 l -3.83 -11.91 c -0.15 -0.45 -0.59 -0.74 -1.06 -0.66 c -20.34,3.03 -26.5,10.51 -28.35,14.57 c -2.39 -4.23 -9.51 -11.96 -29.03 -9.38 c -0.33,0.04 -0.62,0.26 -0.76,0.57 l -3.02,6.78 c -2.18,0.68 -3.6,1.24 -3.83,1.34 c -0.26,0.11 -0.47,0.33 -0.56,0.6 L 23,107.16 c -0.16,0.51,0.11,1.05,0.62,1.22 c 0.51,0.16,1.05 -0.12,1.22 -0.62 l 1.47 -4.56 c 3.28 -1.24,25.15 -8.89,34.92,2.48 c 0.18,0.21,0.45,0.34,0.73,0.34 c 0.28,0,0.55 -0.12,0.73 -0.34 c 9.76 -11.35,31.63 -3.71,34.92 -2.48 l 1.47,4.56 c 0.13,0.41,0.51,0.67,0.92,0.67 c 0.1,0,0.2 -0.02,0.3 -0.05 C 100.83,108.22,101.1,107.67,100.94,107.16 z M 31.44,99.51 l 2.13 -4.79 c 14.48 -1.79,21.47,2.38,24.74,6 C 50.03,95.76,38.5,97.61,31.44,99.51 z M 64.47,101.47 c 2.45 -3.67,8.79 -9.17,25.16 -11.76 l 3.18,9.88 C 85.46,97.58,72.93,95.51,64.47,101.47 z " id="path9455"></path>
		</g>
		<g id="g4569">
			<path fill="#A50205" d=" M 64.55,112.62 h -5.16 c -2.4,0 -4.43 -1.65 -5 -3.87 H 20.18 v -2.58 h 35.34 c 0.71,0,1.29,0.58,1.29,1.29 c 0,1.42,1.16,2.58,2.58,2.58 h 5.16 c 1.42,0,2.58 -1.16,2.58 -2.58 c 0 -0.71,0.58 -1.29,1.29 -1.29 h 35.34 v 2.58 H 69.55 C 68.98,110.97,66.96,112.62,64.55,112.62 z " id="path7655"></path>
		</g>
	</g>
</g>
<g id="tien">
	<g id="g2359">
		<path fill="#7CBB00" d="M 99.5 56.23 L 70.83 56.23 C 70.83 57.55 69.76 58.62 68.44 58.62 L 68.44 69.77 C 69.75999999999999 69.77 70.83 70.83999999999999 70.83 72.16 L 99.5 72.16 C 99.5 70.84 100.57 69.77 101.89 69.77 L 101.89 58.61 C 100.57 58.61 99.5 57.55 99.5 56.23 Z M 75.61 66.58 C 74.29 66.58 73.22 65.51 73.22 64.19 C 73.22 62.87 74.28999999999999 61.8 75.61 61.8 C 76.92999999999999 61.8 78 62.87 78 64.19 C 78 65.51 76.93 66.58 75.61 66.58 Z M 94.73 66.58 L 94.73 66.58 C 93.41000000000001 66.58 92.34 65.51 92.34 64.19 C 92.34 62.87 93.41 61.8 94.73 61.8 L 94.73 61.8 C 96.05 61.8 97.12 62.87 97.12 64.19 C 97.11 65.51 96.05 66.58 94.73 66.58 Z" id="path7076"></path>
	</g>
	<g id="g2601">
		<path fill="#FFBB00" d="M 85.17 39.5 C 95.92 34.53 85.17 23.57 85.17 23.57 S 74.42 34.53 85.17 39.5 Z" id="path3694"></path>
	</g>
	<g id="g9736">
		<path fill="#FFBB00" d="M 70.83 42.69 C 81.58 37.72 70.83 26.759999999999998 70.83 26.759999999999998 S 60.08 37.72 70.83 42.69 Z" id="path6696"></path>
	</g>
	<g id="g4643">
		<path fill="#FFBB00" d="M 97.91 29.94 C 97.91 29.94 87.16 40.900000000000006 97.91 45.870000000000005 C 108.66 40.9 97.91 29.94 97.91 29.94 Z" id="path7719"></path>
	</g>
	<g id="g5095">
		<path fill="#1A171B" d="M 85.17 60.41 C 86.17 60.41 86.98 61.12 86.98 62 C 86.98 62.33 87.25 62.6 87.58 62.6 C 87.91 62.6 88.17999999999999 62.33 88.17999999999999 62 C 88.17999999999999 60.66 87.14999999999999 59.53 85.77 59.27 L 85.77 58.61000000000001 C 85.77 58.28000000000001 85.5 58.010000000000005 85.17 58.010000000000005 C 84.84 58.010000000000005 84.57000000000001 58.28000000000001 84.57000000000001 58.61000000000001 L 84.57000000000001 59.27 C 83.2 59.53 82.16000000000001 60.650000000000006 82.16000000000001 62 C 82.16000000000001 63.35 82.95000000000002 64.78 85.16000000000001 64.78 C 86.36000000000001 64.78 86.97000000000001 65.31 86.97000000000001 66.37 C 86.97000000000001 67.25 86.16000000000001 67.96000000000001 85.16000000000001 67.96000000000001 C 84.16000000000001 67.96000000000001 83.35000000000001 67.25000000000001 83.35000000000001 66.37 C 83.35000000000001 66.04 83.08000000000001 65.77000000000001 82.75000000000001 65.77000000000001 C 82.42000000000002 65.77000000000001 82.15000000000002 66.04 82.15000000000002 66.37 C 82.15000000000002 67.71000000000001 83.18000000000002 68.84 84.56000000000002 69.10000000000001 L 84.56000000000002 69.76 C 84.56000000000002 70.09 84.83000000000001 70.36 85.16000000000001 70.36 C 85.49000000000001 70.36 85.76 70.09 85.76 69.76 L 85.76 69.1 C 87.13000000000001 68.83999999999999 88.17 67.72 88.17 66.36999999999999 C 88.17 65.02 87.38 63.58999999999999 85.17 63.58999999999999 C 83.99 63.58999999999999 83.36 63.03999999999999 83.36 61.999999999999986 C 83.36 61.13 84.17 60.41 85.17 60.41 Z" id="path643"></path>
	</g>
	<g id="g2977">
		<path fill="#1A171B" d="M 94.73 61.2 C 93.08 61.2 91.74000000000001 62.540000000000006 91.74000000000001 64.19 C 91.74000000000001 65.84 93.08000000000001 67.17999999999999 94.73 67.17999999999999 C 96.38000000000001 67.17999999999999 97.72 65.83999999999999 97.72 64.19 C 97.71 62.54 96.37 61.2 94.73 61.2 Z M 94.73 65.98 C 93.74000000000001 65.98 92.94 65.18 92.94 64.19 C 92.94 63.199999999999996 93.74 62.4 94.73 62.4 C 95.72 62.4 96.52000000000001 63.199999999999996 96.52000000000001 64.19 C 96.52 65.18 95.71 65.98 94.73 65.98 Z" id="path9238"></path>
	</g>
	<g id="g249">
		<path fill="#1A171B" d="M 75.61 61.2 C 73.96 61.2 72.62 62.540000000000006 72.62 64.19 C 72.62 65.84 73.96000000000001 67.17999999999999 75.61 67.17999999999999 C 77.26 67.17999999999999 78.6 65.83999999999999 78.6 64.19 C 78.6 62.54 77.26 61.2 75.61 61.2 Z M 75.61 65.98 C 74.62 65.98 73.82 65.18 73.82 64.19 C 73.82 63.199999999999996 74.61999999999999 62.4 75.61 62.4 C 76.6 62.4 77.4 63.199999999999996 77.4 64.19 C 77.4 65.18 76.6 65.98 75.61 65.98 Z" id="path3061"></path>
	</g>
	<g id="g8023">
		<path fill="#1A171B" d="M 103.48 53.24 L 85.77 53.24 L 85.77 52.47 C 85.77 51.48 86.57 50.68 87.56 50.68 L 95.53 50.68 C 97.18 50.68 98.51 49.339999999999996 98.51 47.69 L 98.51 46.23 C 101.18 44.91 102.76 43.08 103.18 40.8 C 104.15 35.51 98.58000000000001 29.759999999999998 98.34 29.519999999999996 C 98.12 29.289999999999996 97.71000000000001 29.289999999999996 97.49000000000001 29.519999999999996 C 97.25000000000001 29.759999999999994 91.69000000000001 35.51 92.65 40.8 C 93.07000000000001 43.089999999999996 94.65 44.91 97.32000000000001 46.23 L 97.32000000000001 47.69 C 97.32000000000001 48.68 96.52000000000001 49.48 95.53 49.48 L 87.56 49.48 C 86.89 49.48 86.27 49.709999999999994 85.77 50.089999999999996 L 85.77 39.86 C 88.44 38.54 90.02 36.71 90.44 34.43 C 91.41 29.14 85.84 23.39 85.6 23.15 C 85.38 22.919999999999998 84.97 22.919999999999998 84.75 23.15 C 84.51 23.389999999999997 78.95 29.14 79.91 34.43 C 80.33 36.72 81.91 38.54 84.58 39.86 L 84.58 46.11 C 84.08 45.73 83.47 45.5 82.78999999999999 45.5 L 73.22999999999999 45.5 C 72.24 45.5 71.43999999999998 44.7 71.43999999999998 43.71 L 71.43999999999998 43.050000000000004 C 74.10999999999999 41.730000000000004 75.68999999999998 39.900000000000006 76.10999999999999 37.620000000000005 C 77.07999999999998 32.330000000000005 71.50999999999999 26.580000000000005 71.26999999999998 26.340000000000003 C 71.04999999999998 26.110000000000003 70.63999999999999 26.110000000000003 70.41999999999999 26.340000000000003 C 70.17999999999999 26.580000000000002 64.61999999999999 32.330000000000005 65.57999999999998 37.620000000000005 C 65.99999999999999 39.910000000000004 67.57999999999998 41.730000000000004 70.24999999999999 43.050000000000004 L 70.24999999999999 43.71 C 70.24999999999999 45.36 71.58999999999999 46.7 73.22999999999999 46.7 L 82.78999999999999 46.7 C 83.77999999999999 46.7 84.58 47.5 84.58 48.49 L 84.58 53.24 L 66.85 53.24 C 66.08 53.24 65.46 53.870000000000005 65.46 54.63 L 65.46 73.74000000000001 C 65.46 74.51 66.08999999999999 75.13000000000001 66.85 75.13000000000001 L 103.47999999999999 75.13000000000001 C 104.24999999999999 75.13000000000001 104.86999999999999 74.51 104.86999999999999 73.74000000000001 L 104.86999999999999 54.63 C 104.88 53.87 104.25 53.24 103.48 53.24 Z M 93.82 40.59 C 93.11 36.71 96.64999999999999 32.260000000000005 97.91 30.830000000000005 C 99.16 32.260000000000005 102.71 36.71000000000001 102 40.59 C 101.68 42.330000000000005 100.5 43.77 98.51 44.89 L 98.51 37.11 C 98.51 36.78 98.24000000000001 36.51 97.91000000000001 36.51 S 97.31000000000002 36.78 97.31000000000002 37.11 L 97.31000000000002 44.89 C 95.32 43.78 94.14 42.34 93.82 40.59 Z M 70.83 33.33 C 70.5 33.33 70.23 33.6 70.23 33.93 L 70.23 41.71 C 68.24000000000001 40.6 67.06 39.160000000000004 66.74000000000001 37.410000000000004 C 66.03000000000002 33.53 69.57000000000001 29.080000000000005 70.83000000000001 27.650000000000006 C 72.08000000000001 29.080000000000005 75.63000000000001 33.53000000000001 74.92000000000002 37.410000000000004 C 74.60000000000002 39.160000000000004 73.42000000000002 40.6 71.43000000000002 41.71 L 71.43000000000002 33.93 C 71.43 33.6 71.16 33.33 70.83 33.33 Z M 81.08 34.22 C 80.37 30.34 83.91 25.89 85.17 24.46 C 86.43 25.89 89.97 30.330000000000002 89.26 34.22 C 88.94000000000001 35.97 87.76 37.41 85.77000000000001 38.519999999999996 L 85.77000000000001 30.739999999999995 C 85.77000000000001 30.409999999999997 85.50000000000001 30.139999999999993 85.17000000000002 30.139999999999993 C 84.84000000000002 30.139999999999993 84.57000000000002 30.409999999999993 84.57000000000002 30.739999999999995 L 84.57000000000002 38.519999999999996 C 82.58 37.41 81.4 35.96 81.08 34.22 Z M 103.68 73.75 C 103.68 73.86 103.59 73.95 103.48 73.95 L 66.85 73.95 C 66.74 73.95 66.64999999999999 73.86 66.64999999999999 73.75 L 66.64999999999999 54.63 C 66.64999999999999 54.52 66.74 54.43 66.85 54.43 L 103.47999999999999 54.43 C 103.58999999999999 54.43 103.67999999999999 54.52 103.67999999999999 54.63 L 103.67999999999999 73.75 Z" id="path1349"></path>
	</g>
<animateTransform attributeName="transform" attributeType="auto" type="translate" values="0 0;0 -15;0 0" keyTimes="0;0.8;1" keySplines=".25 0 .75 .75;.25 0 .75 .75" dur="5s" begin="0s" repeatCount="indefinite" accumulate="none" fill="freeze" id="animateTransform336"></animateTransform></g>
<g id="mui_ten">
	<g id="g6260">
		<polygon fill="#00A1F1" points="110.18,49.08 104.88,42.71 99.58,49.08 102.66,49.08 102.66,66.09 107.09,66.09 107.09,49.08       " id="polygon8044"></polygon>
	</g>
	<g id="g8637">
		<rect x="102.66" y="71.01" fill="#00A1F1" width="4.43" height="11.94" id="rect8624"></rect>
	</g>
	<g id="g3672">
		<rect x="102.66" y="87.88" fill="#00A1F1" width="4.43" height="20.97" id="rect4123"></rect>
	</g>
<animateTransform attributeName="transform" attributeType="auto" type="translate" values="0 0;0 -30" keyTimes="0; 1" keySplines=".25 0 .75 1" dur="2.5s" begin="0s" repeatCount="indefinite" accumulate="none" fill="freeze" id="animateTransform5920"></animateTransform></g>
<g id="chia_khoa">
	<g id="Logo">
		<path fill="#01005C" d="M 58 38.65 C 57.99 38.86 58.01 39.04 57.98 39.22 C 57.9 39.67 57.51 39.97 57.029999999999994 39.96 C 56.21999999999999 39.96 55.53999999999999 40.52 55.38999999999999 41.31 C 55.21999999999999 42.24 55.86999999999999 43.09 56.82999999999999 43.21 C 57.709999999999994 43.32 58.56999999999999 42.6 58.61999999999999 41.7 C 58.62999999999999 41.46 58.67999999999999 41.230000000000004 58.82999999999999 41.040000000000006 C 59.11999999999999 40.660000000000004 59.529999999999994 40.60000000000001 59.959999999999994 40.650000000000006 C 59.96999999999999 40.67000000000001 59.98 40.67000000000001 59.98 40.68000000000001 C 59.949999999999996 41.21000000000001 59.98 41.74000000000001 59.87 42.260000000000005 C 59.58 43.68000000000001 58.279999999999994 44.63 56.809999999999995 44.56 C 55.4 44.49 54.22 43.39 54.03999999999999 41.980000000000004 C 53.809999999999995 40.2 55.18999999999999 38.620000000000005 56.989999999999995 38.63 C 57.34 38.62 57.66 38.64 58 38.65 Z" id="path9570"></path>
		<path fill="#A50205" d="M 59.82 43.8 C 60.01 44.669999999999995 59.81 45.4 59.2 46.029999999999994 C 58.89 46.35999999999999 58.5 46.55 58.06 46.64999999999999 C 57.410000000000004 46.779999999999994 56.760000000000005 46.919999999999995 56.11 47.04999999999999 C 55.26 47.22999999999999 54.56 47.62999999999999 54.01 48.30999999999999 C 53.989999999999995 48.32999999999999 53.98 48.33999999999999 53.94 48.36999999999999 C 53.809999999999995 47.90999999999999 53.809999999999995 47.46999999999999 53.97 47.03999999999999 C 54.24 46.279999999999994 54.78 45.779999999999994 55.58 45.60999999999999 C 56.239999999999995 45.459999999999994 56.9 45.32999999999999 57.57 45.199999999999996 C 58.44 45.019999999999996 59.15 44.589999999999996 59.69 43.88999999999999 C 59.71 43.86999999999999 59.73 43.839999999999996 59.75 43.81999999999999 C 59.78 43.83 59.79 43.82 59.82 43.8 Z" id="path4299"></path>
		<path fill="#A50205" d="M 60.04 38.69 C 60.03 38.98 60.05 39.239999999999995 60.01 39.5 C 59.96 39.84 59.62 40.06 59.26 40.02 C 58.919999999999995 39.980000000000004 58.669999999999995 39.690000000000005 58.68 39.34 C 58.69 38.99 58.94 38.71 59.29 38.68000000000001 C 59.339999999999996 38.67000000000001 59.39 38.67000000000001 59.449999999999996 38.68000000000001 C 59.64 38.68 59.83 38.68 60.04 38.69 Z" id="path3726"></path>
	</g>
	<g id="g6800">
		<path fill="#FFBB00" d="M 57.22 51.37 C 61.48 50.76 64.77 47.089999999999996 64.77 42.66 C 64.77 37.8 60.81999999999999 33.849999999999994 55.959999999999994 33.849999999999994 C 51.099999999999994 33.849999999999994 47.14999999999999 37.8 47.14999999999999 42.66 C 47.14999999999999 47.089999999999996 50.43999999999999 50.76 54.69999999999999 51.37 L 54.69999999999999 90.96000000000001 L 57.21999999999999 90.96000000000001 L 57.21999999999999 88.44000000000001 L 64.77 88.44000000000001 L 64.77 85.92000000000002 L 61.62 85.92000000000002 L 61.62 77.11000000000001 L 64.77 77.11000000000001 L 64.77 74.59000000000002 L 57.22 74.59000000000002 L 57.22 51.37 Z M 49.67 42.65 C 49.67 39.18 52.49 36.36 55.96 36.36 C 59.43 36.36 62.25 39.18 62.25 42.65 C 62.25 46.12 59.43 48.94 55.96 48.94 C 52.49 48.95 49.67 46.12 49.67 42.65 Z" id="path6236"></path>
	</g>
<animateTransform attributeName="transform" attributeType="auto" type="rotate" values="0 56 49.75;5 56 49.75;-5 56 49.75;0 56 49.75" keyTimes="0; 0.24; 0.8; 1" keySplines=".25 0 .75 1;.25 0 .75 1;.25 0 .75 1" dur="2.5s" begin="0s" repeatCount="indefinite" accumulate="none" fill="freeze" id="animateTransform639"></animateTransform></g>
</svg>
