<?xml version="1.0" encoding="UTF-8"?>
<!-- Animated using SVGANIMA - https://svganima.com -->
<svg xmlns="http://www.w3.org/2000/svg" xmlns:xlink="http://www.w3.org/1999/xlink" version="1.2" id="Nguyen_Phung_Hung_Created_nph5680_x40_gmail.com" x="0px" y="0px" viewBox="0 0 128 128" overflow="visible" xml:space="preserve" preserveAspectRatio="xMidYMid" width="NaN" height="NaN">
<defs id="defs8107"></defs><g id="Money">
	<g id="g110">
		<path d="M 77.26 55.5 C 77.15 55.4 77.14 55.24 77.24000000000001 55.13 C 77.34 55.02 77.50000000000001 55.010000000000005 77.61000000000001 55.11 C 78.21000000000001 55.65 79.11000000000001 55.86 79.89000000000001 55.64 C 80.03000000000002 55.6 80.17000000000002 55.68 80.21000000000001 55.82 C 80.25000000000001 55.96 80.17 56.1 80.03 56.14 C 79.07 56.41 77.99 56.16 77.26 55.5 Z" id="path8065"></path>
	</g>
	<g id="g6218">
		<path d="M 80.32 55.3 C 79.97999999999999 55.3 79.97 54.79 80.30999999999999 54.779999999999994 C 81.18999999999998 54.74999999999999 82.46999999999998 54.23 82.83999999999999 53.57999999999999 C 82.90999999999998 53.459999999999994 83.07 53.40999999999999 83.19999999999999 53.48999999999999 C 83.32 53.55999999999999 83.36999999999999 53.719999999999985 83.28999999999999 53.84999999999999 C 82.77 54.74 81.23 55.26 80.32 55.3 C 80.32 55.3 80.32 55.3 80.32 55.3 Z" id="path3857"></path>
	</g>
	<g id="g7071">
		<path fill="#00A1F1" d="M 77.79 55.9 C 77.32000000000001 56.14 76.5 55.96 76.08000000000001 55.69 C 75.15 55.08 74.81000000000002 53.97 74.59000000000002 52.89 C 74.55000000000001 52.71 74.70000000000002 52.55 74.88000000000002 52.56 C 75.37000000000002 52.580000000000005 75.86000000000003 52.61 76.33000000000003 52.78 C 78.66 53.64 78.31 55.64 77.79 55.9 Z" id="path669"></path>
	</g>
	<g id="g9472">
		<path fill="#00A1F1" d="M 81.99 54.51 C 81.86 54 82.19999999999999 53.239999999999995 82.55 52.879999999999995 C 83.35 52.08 84.52 51.99999999999999 85.63 51.99999999999999 C 85.8 51.99999999999999 85.92 52.15999999999999 85.86999999999999 52.31999999999999 C 85.74 52.809999999999995 85.60999999999999 53.279999999999994 85.33999999999999 53.71999999999999 C 84.02 55.84 82.14 55.07 81.99 54.51 Z" id="path2063"></path>
	</g>
	<g id="g4696">
		<path d="M 79.91 58.42 C 79.91 58.42 79.91 58.42 79.91 58.42 C 79.75999999999999 58.42 79.64 58.300000000000004 79.64999999999999 58.15 L 79.85999999999999 51.56 C 79.85999999999999 51.42 80.00999999999999 51.300000000000004 80.12999999999998 51.31 C 80.26999999999998 51.31 80.38999999999999 51.43 80.37999999999998 51.580000000000005 L 80.16999999999999 58.17 C 80.17 58.31 80.05 58.42 79.91 58.42 Z" id="path651"></path>
	</g>
	<g id="g7803">
		<path fill="#00A1F1" d="M 79.65 53.19 C 79.13000000000001 52.89 78.78 51.98 78.78 51.4 C 78.78 50.089999999999996 79.68 49.05 80.6 48.15 C 80.72999999999999 48.03 80.94 48.059999999999995 81.03 48.21 C 81.33 48.72 81.62 49.22 81.75 49.81 C 82.4 52.62 80.23 53.53 79.65 53.19 Z" id="path8257"></path>
	</g>
	<g id="g3700">
		<path d="M 87.55 64.11 C 86.58 63.37 85.44 62.75 84.16 62.32 C 84.00999999999999 62.27 83.64 62.23 83.47 62.05 C 83.19 61.75 83.35 61.32 83.96 61.25 C 84.66999999999999 61.17 85.75999999999999 60.88 86.69999999999999 60.38 C 86.82999999999998 60.31 86.97999999999999 60.36 87.04999999999998 60.49 C 87.11999999999998 60.620000000000005 87.06999999999998 60.77 86.93999999999998 60.84 C 85.97999999999999 61.35 84.86999999999999 61.67 84.07999999999998 61.760000000000005 C 84.91999999999999 61.95 86.55999999999999 62.690000000000005 87.85999999999999 63.690000000000005 C 87.96999999999998 63.78000000000001 87.99999999999999 63.940000000000005 87.90999999999998 64.06 C 87.83 64.17 87.66 64.19 87.55 64.11 Z" id="path79"></path>
	</g>
	<g id="g2684">
		<path fill="#FFBB00" d="M 82.7 61.32 C 81.92 62.11 82.41 62.08 83.82000000000001 63.24 C 85.36000000000001 64.51 86.82000000000001 65.9 87.38000000000001 67.5 C 87.95 69.1 87.46000000000001 70.97 85.63000000000001 72.04 C 83.94000000000001 73.03 81.51 73.18 79.28000000000002 73.04 C 77.76000000000002 72.95 76.20000000000002 72.73 74.98000000000002 72.12 C 73.07000000000002 71.16000000000001 72.36000000000001 69.39 72.61000000000001 67.78 C 72.91000000000001 65.89 74.33000000000001 64.15 75.53000000000002 62.46 C 75.77000000000001 62.12 76.09000000000002 61.82 76.40000000000002 61.52 C 76.83000000000003 61.09 76.45000000000002 61.03 75.96000000000002 60.67 C 75.62000000000002 60.410000000000004 75.22000000000003 60.21 74.79000000000002 60.06 C 74.07000000000002 59.800000000000004 73.15000000000002 59.42 72.87000000000002 58.760000000000005 C 72.62000000000002 58.160000000000004 73.01000000000002 57.45 73.69000000000001 57.11000000000001 C 74.37000000000002 56.77 75.25000000000001 56.77 75.99000000000001 57.00000000000001 C 76.73 57.230000000000004 77.35000000000001 57.68000000000001 77.83000000000001 58.18000000000001 C 77.95000000000002 58.300000000000004 78.09000000000002 58.440000000000005 78.28000000000002 58.440000000000005 C 78.62000000000002 58.43000000000001 78.41000000000001 58.06 78.44000000000001 57.790000000000006 C 78.53000000000002 56.980000000000004 79.57000000000001 56.31000000000001 80.59000000000002 56.43000000000001 C 81.40000000000002 56.52000000000001 82.05000000000001 57.09 82.18000000000002 57.720000000000006 C 82.22000000000003 57.900000000000006 82.73000000000002 57.99000000000001 82.92000000000002 57.88 C 84.40000000000002 57.02 85.80000000000001 57.6 86.03000000000002 58.36 C 86.20000000000002 58.91 85.79000000000002 59.47 85.25000000000001 59.839999999999996 C 84.38 60.41 83.5 60.52 82.7 61.32 Z" id="path160"></path>
	</g>
	<g id="g8702">
		<path d="M 78.72 61.26 C 78.24 60.379999999999995 77.47 59.669999999999995 76.57 59.23 C 76.5 59.199999999999996 76.47999999999999 59.12 76.50999999999999 59.059999999999995 C 76.53999999999999 58.989999999999995 76.61999999999999 58.96999999999999 76.67999999999999 58.99999999999999 C 77.63 59.449999999999996 78.44 60.209999999999994 78.94 61.129999999999995 C 79.03 61.28 78.8 61.41 78.72 61.26 Z" id="path5559"></path>
	</g>
	<g id="g4952">
		<path d="M 79.59 61.28 C 79.60000000000001 60.58 79.67 59.870000000000005 79.79 59.17 C 79.80000000000001 59.1 79.87 59.050000000000004 79.94000000000001 59.06 C 80.01 59.07 80.06000000000002 59.14 80.05000000000001 59.21 C 79.94000000000001 59.89 79.87 60.59 79.86000000000001 61.28 C 79.85 61.46 79.59 61.46 79.59 61.28 Z" id="path5123"></path>
	</g>
	<g id="g778">
		<path d="M 80.91 61.95 C 80.89999999999999 61.95 80.89 61.95 80.88 61.95 C 80.81 61.93 80.77 61.86 80.78999999999999 61.790000000000006 C 81.03999999999999 60.82000000000001 81.71 59.96000000000001 82.58999999999999 59.49000000000001 C 82.64999999999999 59.46000000000001 82.72999999999999 59.48000000000001 82.77 59.540000000000006 C 82.8 59.60000000000001 82.78 59.68000000000001 82.72 59.720000000000006 C 81.9 60.160000000000004 81.28 60.95 81.05 61.85000000000001 C 81.02 61.91 80.97 61.95 80.91 61.95 Z" id="path7804"></path>
	</g>
	<g id="g1867">
		<path fill="#A50205" d="M 82.68 60.87 C 83.03 60.87 83.38000000000001 60.879999999999995 83.7 61 C 84.44 61.28 84.51 62 83.79 62.34 C 82.92 62.75 79.39 62.56 77.44000000000001 62.540000000000006 C 76.43 62.53000000000001 75.37000000000002 62.52 74.50000000000001 62.080000000000005 C 73.72000000000001 61.690000000000005 73.82000000000001 61.11000000000001 74.41000000000001 60.93000000000001 C 74.92 60.79 82.37 60.87 82.68 60.87 Z" id="path4825"></path>
	</g>
	<g id="g9591">
		<path d="M 77.42 62.98 C 76.48 62.97 75.32000000000001 62.97 74.36 62.489999999999995 C 74.23 62.42999999999999 74.17999999999999 62.269999999999996 74.24 62.13999999999999 C 74.3 62.00999999999999 74.46 61.959999999999994 74.58999999999999 62.019999999999996 C 75.6 62.529999999999994 76.68999999999998 62.42999999999999 78.99999999999999 62.48 C 80.25999999999999 62.51 81.55999999999999 62.54 82.82999999999998 62.44 C 83.17999999999998 62.419999999999995 83.20999999999998 62.93 82.86999999999999 62.96 C 81.06 63.11 79.2 62.99 77.42 62.98 Z" id="path4144"></path>
	</g>
	<g id="g3645">
		<g id="g3882">
			<path fill="#FFFFFF" d="M 80.91 68.13 C 80.67 68.02 80.42 67.96 80.17 67.89 C 80.18 67.46 80.19 67.05 80.21000000000001 66.65 C 80.48 66.67 80.75000000000001 66.72 81.03 66.77000000000001 C 81.24 66.81000000000002 81.45 66.70000000000002 81.49 66.54 C 81.53 66.37 81.39999999999999 66.2 81.19 66.17 C 80.89 66.11 80.56 66.06 80.22 66.03 C 80.23 65.84 80.24 65.65 80.25 65.48 C 80.26 65.32000000000001 80.11 65.16000000000001 79.91 65.16000000000001 C 79.72999999999999 65.15 79.56 65.28000000000002 79.55 65.45000000000002 C 79.53999999999999 65.64000000000001 79.53 65.84000000000002 79.52 66.04000000000002 C 77.67999999999999 66.18000000000002 77.44 67.76000000000002 79.32 68.32000000000002 C 79.35 68.33000000000003 79.39999999999999 68.35000000000002 79.44 68.36000000000003 C 79.42 68.89000000000003 79.41 69.43000000000002 79.41 69.95000000000003 C 79.03 69.94000000000003 78.64 69.85000000000004 78.32 69.70000000000003 C 78.13 69.61000000000003 77.88999999999999 69.65000000000003 77.77999999999999 69.80000000000003 C 77.65999999999998 69.94000000000003 77.71 70.14000000000003 77.89999999999999 70.23000000000003 C 78.33999999999999 70.45000000000003 78.86999999999999 70.57000000000004 79.38999999999999 70.58000000000003 L 79.38999999999999 71.17000000000003 C 79.38999999999999 71.34000000000003 79.54999999999998 71.48000000000003 79.73999999999998 71.48000000000003 C 79.93999999999998 71.48000000000003 80.08999999999997 71.34000000000003 80.08999999999997 71.17000000000003 L 80.08999999999997 70.51000000000003 C 80.79999999999997 70.38000000000004 81.36999999999998 70.02000000000004 81.57999999999997 69.57000000000004 C 81.86 69.04 81.57 68.45 80.91 68.13 Z M 79.51 66.67 C 79.5 67 79.49000000000001 67.35000000000001 79.48 67.69 C 78.69 67.42 78.5 66.82 79.51 66.67 Z M 80.89 69.36 C 80.78 69.57 80.49 69.76 80.13 69.86 C 80.13 69.42999999999999 80.14 68.98 80.14999999999999 68.54 C 80.27999999999999 68.58000000000001 80.38999999999999 68.62 80.49999999999999 68.67 C 80.85 68.83 81 69.11 80.89 69.36 Z" id="path985"></path>
		</g>
	</g>
	<g id="g7549">
		<path d="M 75.43 70.64 C 75.42 70.64 75.4 70.64 75.39 70.63 C 74.29 70.28999999999999 73.54 68.94 74.11 67.16 C 74.31 66.53999999999999 74.62 65.99 74.97 65.38 C 75.01 65.32 75.09 65.3 75.15 65.33 C 75.21000000000001 65.37 75.23 65.45 75.2 65.51 C 74.85000000000001 66.11 74.55 66.65 74.36 67.24000000000001 C 73.83 68.89000000000001 74.51 70.09 75.47 70.38000000000001 C 75.53999999999999 70.4 75.58 70.47000000000001 75.56 70.54 C 75.53 70.6 75.48 70.64 75.43 70.64 Z" id="path4828"></path>
	</g>
	<g id="g6897">
		<path d="M 77.12 55.29 C 76.87 54.6 76.37 54.01 75.73 53.65 C 75.58 53.57 75.71000000000001 53.339999999999996 75.86 53.42 C 76.55 53.800000000000004 77.11 54.45 77.37 55.2 C 77.42 55.36 77.17 55.45 77.12 55.29 Z" id="path7632"></path>
	</g>
	<g id="g5229">
		<path d="M 79.85 52.45 C 79.85 52.45 79.85 52.45 79.85 52.45 C 79.77 52.45 79.72 52.39 79.72 52.32 C 79.74 51.84 79.86 51.36 80.06 50.93 C 80.09 50.86 80.17 50.839999999999996 80.23 50.87 C 80.29 50.9 80.32000000000001 50.98 80.29 51.04 C 79.83 52 80.12 52.45 79.85 52.45 Z" id="path5121"></path>
	</g>
	<g id="g3257">
		<path d="M 82.77 54 C 83.11 53.45 83.69 53.05 84.33 52.94 C 84.39999999999999 52.93 84.47 52.97 84.48 53.04 C 84.49000000000001 53.11 84.45 53.18 84.38000000000001 53.19 C 83.82000000000001 53.3 83.30000000000001 53.65 83.00000000000001 54.14 C 82.9 54.28 82.68 54.15 82.77 54 Z" id="path8220"></path>
	</g>
	<g id="g2506">
		<g id="g459">
			<path d="M 68.8 58.79 C 68.75999999999999 58.65 68.85 58.51 68.99 58.47 C 69.69999999999999 58.29 70.44 58.17 71.17 58.12 C 71.32000000000001 58.12 71.44 58.22 71.45 58.36 C 71.46000000000001 58.5 71.35000000000001 58.63 71.21000000000001 58.64 C 70.51 58.69 69.80000000000001 58.8 69.12 58.980000000000004 C 68.98 59.01 68.84 58.93 68.8 58.79 Z" id="path3148"></path>
		</g>
		<g id="g5192">
			<path d="M 71.59 57.48 C 70.71000000000001 57.36 69.84 57.07 69.08 56.62 C 68.96 56.55 68.91 56.39 68.99 56.26 C 69.05999999999999 56.14 69.22 56.089999999999996 69.35 56.169999999999995 C 70.05999999999999 56.57999999999999 70.86 56.85999999999999 71.66999999999999 56.959999999999994 C 71.80999999999999 56.98 71.90999999999998 57.10999999999999 71.88999999999999 57.24999999999999 C 71.86 57.4 71.73 57.5 71.59 57.48 Z" id="path537"></path>
		</g>
		<g id="g156">
			<path d="M 72.01 56.5 C 71.47 56.01 71.09 55.35 70.92 54.64 C 70.89 54.5 70.98 54.36 71.12 54.33 C 71.26 54.3 71.4 54.39 71.43 54.53 C 71.57000000000001 55.14 71.9 55.7 72.36000000000001 56.120000000000005 C 72.47000000000001 56.220000000000006 72.47000000000001 56.38 72.38000000000001 56.49 C 72.28 56.59 72.12 56.6 72.01 56.5 Z" id="path6455"></path>
		</g>
	</g>
<animateTransform attributeName="transform" attributeType="auto" type="translate" values="0 0;0 -15;0 -20;0 -28" keyTimes="0; 0.1598; 0.62; 1" keySplines=".25 0 .75 1;.25 .25 .75 1;.25 0 .75 1" dur="5s" begin="0s" repeatCount="indefinite" accumulate="none" fill="freeze" id="animateTransform9065"></animateTransform></g>
<g id="g4490">
	<g id="g2587">
		<path d="M 88.46 96.28 C 75.00999999999999 95.32000000000001 61.279999999999994 96.39 47.75999999999999 95.43 C 43.709999999999994 95.14 42.62999999999999 93.56 42.14999999999999 89.65 C 40.63999999999999 77.35000000000001 39.82999999999999 64.80000000000001 39.75999999999999 52.36000000000001 C 39.75999999999999 51.830000000000005 40.17999999999999 51.400000000000006 40.709999999999994 51.400000000000006 C 41.18999999999999 51.410000000000004 41.669999999999995 51.82000000000001 41.669999999999995 52.35000000000001 C 41.739999999999995 64.72000000000001 42.53999999999999 77.19000000000001 44.05 89.42000000000002 C 44.47 92.84000000000002 45.16 93.33000000000001 47.9 93.53000000000002 C 61.019999999999996 94.47000000000001 74.37 93.47000000000001 87.58 94.31000000000002 L 87.72 78.81000000000002 C 87.72 78.29000000000002 88.15 77.86000000000001 88.67 77.86000000000001 C 88.67 77.86000000000001 88.68 77.86000000000001 88.68 77.86000000000001 C 89.21000000000001 77.86000000000001 89.63000000000001 78.29000000000002 89.63000000000001 78.82000000000001 L 89.48 95.33000000000001 C 89.48 95.89 89 96.32 88.46 96.28 Z" id="path772"></path>
	</g>
	<g id="g8756">
		<path fill="#00A1F1" d="M 64.03 51.97 C 64.22 53.519999999999996 63.49 55.12 62.06 55.769999999999996 C 60.47 56.489999999999995 58.910000000000004 55.769999999999996 55.77 55.73 C 29.270000000000003 55.37 27.730000000000004 56.629999999999995 22.07 55.199999999999996 C 19.92 54.66 19.71 51.959999999999994 19.78 49.949999999999996 C 20.130000000000003 41.959999999999994 21.03 33.879999999999995 19.78 25.989999999999995 C 19.400000000000002 23.679999999999996 20.75 21.499999999999993 25.400000000000002 21.799999999999994 C 33.88 22.309999999999995 51.22 22.809999999999995 57.629999999999995 22.089999999999993 C 58.4 21.999999999999993 58.989999999999995 21.819999999999993 59.769999999999996 21.91999999999999 C 61.92999999999999 22.199999999999992 64.34 22.999999999999993 64.42 25.179999999999993 C 64.47 26.33 62.06 36.6 64.03 51.97 Z" id="path2144"></path>
	</g>
	<g id="g329">
		<path d="M 60.39 57.04 C 59.32 57.04 57.71 56.699999999999996 55.75 56.68 C 55.22 56.67 54.8 56.24 54.81 55.71 C 54.82 55.19 55.24 54.77 55.760000000000005 54.77 C 55.760000000000005 54.77 55.77 54.77 55.77 54.77 C 58.84 54.81 60.39 55.470000000000006 61.650000000000006 54.900000000000006 C 62.63 54.45 63.21000000000001 53.290000000000006 63.07000000000001 52.080000000000005 C 62.10000000000001 44.540000000000006 62.32000000000001 38.120000000000005 62.32000000000001 37.92 C 62.330000000000005 37.4 62.760000000000005 36.99 63.27000000000001 36.99 C 63.28000000000001 36.99 63.28000000000001 36.99 63.29000000000001 36.99 C 63.820000000000014 37 64.23000000000002 37.440000000000005 64.22000000000001 37.96 C 64.26000000000002 40.19 64.01000000000002 44.45 64.96000000000001 51.85 C 65.29 54.49 63.57 57.04 60.39 57.04 Z" id="path1388"></path>
	</g>
	<g id="g5515">
		<path fill="#FFBB00" d="M 110.85 75.62 C 111.03999999999999 77.17 110.30999999999999 78.77000000000001 108.88 79.42 C 107.28999999999999 80.14 105.72999999999999 79.42 102.58999999999999 79.38 C 76.08999999999999 79.02 74.54999999999998 80.28 68.88999999999999 78.85 C 67.88999999999999 78.6 67.18999999999998 77.66999999999999 66.86999999999999 76.67999999999999 C 65.88999999999999 73.47999999999999 68.32999999999998 60.50999999999999 66.6 49.63999999999999 C 66.22 47.32999999999999 67.57 45.14999999999999 72.22 45.449999999999996 C 80.7 45.959999999999994 98.03999999999999 46.459999999999994 104.44999999999999 45.739999999999995 C 105.21999999999998 45.64999999999999 105.80999999999999 45.46999999999999 106.58999999999999 45.56999999999999 C 108.74999999999999 45.849999999999994 111.16 46.64999999999999 111.24 48.82999999999999 C 111.29 49.99 108.88 60.26 110.85 75.62 Z" id="path9848"></path>
	</g>
	<g id="g4650">
		<path fill="#FFBB00" d="M 59.41 89.64 C 59.5 98.52 52.25 105.62 43.879999999999995 106.19 C 34.529999999999994 106.83 26.119999999999994 99.22 26.259999999999994 89.81 C 26.379999999999995 81.86 32.239999999999995 74.54 40.14999999999999 73.18 C 50.58 71.39 59.32 79.89 59.41 89.64 Z" id="path5757"></path>
	</g>
	<g id="g7053">
		<path fill="#FFFFFF" d="M 55.83 89.63 C 55.9 96.58999999999999 50.22 102.16 43.66 102.61 C 36.33 103.11 29.729999999999997 97.15 29.839999999999996 89.77 C 29.929999999999996 83.53999999999999 34.529999999999994 77.8 40.73 76.72999999999999 C 48.91 75.32 55.76 81.99 55.83 89.63 Z" id="path3692"></path>
	</g>
	<g id="g2316">
		<g id="g385">
			<g id="g1481">
				<path fill="#FFFFFF" d="M 43.46 36.68 C 44.99 36.1 46.19 34.46 46.21 32.67 C 46.26 28.6 41.07 25.330000000000002 38.29 28.080000000000002 C 36.39 29.96 36.83 33.74 38.61 35.49 C 39.9 36.76 41.81 37.31 43.46 36.68 Z" id="path1902"></path>
			</g>
		</g>
		<g id="g417">
			<g id="g3445">
				<path fill="#FFFFFF" d="M 32.17 50.69 C 31.53 50.69 31.040000000000003 50.12 31.150000000000002 49.5 C 32.04 44.46 33.830000000000005 40.15 39.150000000000006 39.03 C 42.59 38.300000000000004 46.27 39.89 48.580000000000005 42.51 C 50.63 44.83 51.71000000000001 46.75 52.120000000000005 49.559999999999995 C 52.21000000000001 50.16 51.71000000000001 50.699999999999996 51.09 50.699999999999996 L 32.17 50.699999999999996 Z" id="path8985"></path>
			</g>
		</g>
	</g>
	<g id="g6039">
		<path fill="#FFFFFF" d="M 79.44 73.89 C 78.8 73.89 78.31 73.32000000000001 78.42 72.7 C 79.31 67.66 81.10000000000001 63.35 86.42 62.230000000000004 C 89.86 61.50000000000001 93.54 63.09 95.85 65.71000000000001 C 97.89999999999999 68.03 98.97999999999999 69.95 99.39 72.76 C 99.48 73.36 98.98 73.9 98.36 73.9 L 79.44 73.9 Z" id="path3245"></path>
	</g>
	<g id="g3730">
		<path fill="#FFFFFF" d="M 93.84 59.34 C 90.98 56.970000000000006 93.13000000000001 52.84 90.56 50.5 C 89.49000000000001 49.52 87.7 49.46 86.43 50.11 C 84.04 51.339999999999996 85.12 54.6 84.26 56.769999999999996 C 83.89 57.67999999999999 83.21000000000001 58.42999999999999 82.53 59.13999999999999 C 86.38 59.34 89.98 59.14 93.84 59.34 Z" id="path2662"></path>
	</g>
	<g id="g9490">
		<path d="M 23.92 37.05 C 23.67 37.05 23.46 36.86 23.450000000000003 36.61 L 22.790000000000003 26.729999999999997 C 22.750000000000004 26.119999999999997 23.69 26.009999999999998 23.740000000000002 26.669999999999998 L 24.400000000000002 36.55 C 24.42 36.809999999999995 24.220000000000002 37.04 23.96 37.059999999999995 C 23.94 37.05 23.93 37.05 23.92 37.05 Z" id="path1676"></path>
	</g>
	<g id="g5694">
		<path d="M 104.59 61.31 C 103.87 59.870000000000005 104.19 58.190000000000005 104.44 56.59 C 105.3 50.57000000000001 100.52 52.470000000000006 97.39 51.88 C 96.76 51.760000000000005 96.95 50.82 97.57000000000001 50.940000000000005 C 99.12 51.230000000000004 100.73 50.88 102.39000000000001 51.21000000000001 C 105.17000000000002 51.760000000000005 105.78000000000002 53.93000000000001 105.39000000000001 56.720000000000006 C 105.18000000000002 58.120000000000005 104.87000000000002 59.690000000000005 105.46000000000001 60.88000000000001 C 105.58000000000001 61.12000000000001 105.48 61.40000000000001 105.25000000000001 61.52000000000001 C 104.98 61.64 104.7 61.54 104.59 61.31 Z" id="path4822"></path>
	</g>
<animateTransform attributeName="transform" attributeType="auto" type="rotate" values="0 64 64;-2 64 64;0 64 64;2 64 64;0 64 64;-2 64 64" keyTimes="0;0.2;0.4;0.6;0.8;1" keySplines="0 0 1 1;0 0 1 1;0 0 1 1;0 0 1 1;0 0 1 1" dur="5s" begin="0s" repeatCount="indefinite" accumulate="none" fill="freeze" id="animateTransform2335"></animateTransform></g>
<g id="g6816">
	<path fill="#01005C" d=" M 44.79,79.23 c 0,0.44,0.05,0.82 -0.02,1.19 c -0.15,0.96 -0.94,1.6 -1.97,1.61 c -1.72,0.05 -3.11,1.26 -3.38,2.93 c -0.3,1.97,1.11,3.73,3.15,3.94 c 1.87,0.19,3.63 -1.38,3.7 -3.28 c 0.02 -0.5,0.1 -0.99,0.4 -1.4 c 0.59 -0.82,1.45 -0.98,2.37 -0.87 c 0.02,0.03,0.05,0.05,0.05,0.07 c -0.03,1.11,0.05,2.24 -0.15,3.33 c -0.54,3.01 -3.23,5.08 -6.32,5.01 c -2.98 -0.07 -5.52 -2.32 -5.97 -5.28 c -0.57 -3.75,2.25 -7.15,6.04 -7.23 C 43.4,79.21,44.09,79.23,44.79,79.23 z " id="path9906"></path>
	<path fill="#A50205" d=" M 48.91,90.01 c 0.45,1.82,0.07,3.38 -1.18,4.74 c -0.64,0.71 -1.45,1.14 -2.37,1.36 c -1.36,0.32 -2.72,0.64 -4.09,0.96 c -1.78,0.42 -3.25,1.31 -4.36,2.78 c -0.03,0.03 -0.07,0.07 -0.13,0.13 c -0.3 -0.96 -0.32 -1.9 -0.02 -2.81 c 0.54 -1.61,1.63 -2.69,3.31 -3.11 c 1.38 -0.35,2.78 -0.66,4.17 -0.98 c 1.82 -0.42,3.3 -1.38,4.41 -2.88 c 0.03 -0.05,0.08 -0.1,0.12 -0.15 C 48.83,90.06,48.85,90.04,48.91,90.01 z " id="path7397"></path>
	<path fill="#A50205" d=" M 49.1,79.21 c 0,0.61,0.05,1.16 -0.02,1.72 c -0.08,0.72 -0.79,1.19 -1.55,1.13 c -0.72 -0.07 -1.26 -0.67 -1.26 -1.41 s 0.52 -1.35,1.24 -1.43 c 0.1 -0.02,0.22 -0.02,0.34 -0.02 C 48.26,79.21,48.66,79.21,49.1,79.21 z " id="path5472"></path>
</g>
<g id="g5854">
	<g id="g4174">
		<path fill="#FFBB00" d="M 45.03 54.59 C 45.65 57.13 44.06 59.650000000000006 41.7 60.370000000000005 C 39.07 61.18000000000001 36.150000000000006 59.57000000000001 35.550000000000004 56.870000000000005 C 35.050000000000004 54.59 36.230000000000004 52.10000000000001 38.410000000000004 51.18000000000001 C 41.27 49.96 44.34 51.81 45.03 54.59 Z" id="path7379"></path>
	</g>
	<g id="g7270">
		<path fill="#A50205" d="M 38.72 56.45 C 38.71 56.480000000000004 38.69 56.480000000000004 38.66 56.470000000000006 C 38.01 56.24000000000001 37.55 56.31000000000001 36.93 55.830000000000005 C 36.45 55.46000000000001 36.42 54.940000000000005 36.74 54.59 C 37.080000000000005 54.21 37.660000000000004 54.34 37.92 54.71 C 37.93 54.72 37.95 54.71 37.95 54.7 C 37.88 54.38 38.02 54.03 38.300000000000004 53.86 C 38.59 53.69 39.03 53.75 39.25000000000001 54.01 C 39.83 54.72 38.83 56.09 38.72 56.45 Z" id="path7336"></path>
	</g>
	<g id="g9190">
		<path fill="#A50205" d="M 41.99 55.27 C 41.97 55.300000000000004 41.96 55.300000000000004 41.93 55.28 C 41.38 54.980000000000004 41.52 55.120000000000005 41.1 54.93 C 39.89 54.38 39.800000000000004 53.55 40.31 53.14 C 40.7 52.82 41.260000000000005 53.04 41.46 53.43 C 41.47 53.44 41.49 53.44 41.49 53.42 C 41.47 53.1 41.660000000000004 52.77 41.96 52.64 C 42.28 52.51 42.7 52.64 42.88 52.93 C 43.35 53.73 42.16 54.93 41.99 55.27 Z" id="path581"></path>
	</g>
	<g id="g3105">
		<path d="M 39.27 59.17 C 39.080000000000005 59.14 38.940000000000005 58.96 38.970000000000006 58.77 C 39.00000000000001 58.580000000000005 39.18000000000001 58.440000000000005 39.370000000000005 58.470000000000006 C 40.92 58.690000000000005 42.410000000000004 57.81000000000001 42.970000000000006 56.35000000000001 C 43.040000000000006 56.17000000000001 43.24000000000001 56.080000000000005 43.43000000000001 56.150000000000006 C 43.61000000000001 56.220000000000006 43.70000000000001 56.43000000000001 43.63000000000001 56.61000000000001 C 42.96 58.36 41.15 59.43 39.27 59.17 Z" id="path1805"></path>
	</g>
<animateTransform attributeName="transform" attributeType="auto" type="translate" values="0 0;0 40;48 40;48 0;0 0" keyTimes="0;0.2;0.4;0.78;1" keySplines=".25 0 .75 1;.25 0 .75 1;.25 0 .75 1;.25 0 .75 1" dur="5s" begin="0s" repeatCount="indefinite" accumulate="none" fill="freeze" id="animateTransform2048"></animateTransform></g>
</svg>
